<?xml version="1.0" encoding="UTF-8" standalone="no"?>
<!-- Created with Inkscape (http://www.inkscape.org/) -->

<svg
   xmlns:dc="http://purl.org/dc/elements/1.1/"
   xmlns:cc="http://creativecommons.org/ns#"
   xmlns:rdf="http://www.w3.org/1999/02/22-rdf-syntax-ns#"
   xmlns:svg="http://www.w3.org/2000/svg"
   xmlns="http://www.w3.org/2000/svg"
   xmlns:sodipodi="http://sodipodi.sourceforge.net/DTD/sodipodi-0.dtd"
   xmlns:inkscape="http://www.inkscape.org/namespaces/inkscape"
   width="96"
   height="96"
   id="svg2"
   version="1.1"
   inkscape:version="0.48.4 r9939"
   sodipodi:docname="New document 1">
  <defs
     id="defs4" />
  <sodipodi:namedview
     id="base"
     pagecolor="#ffffff"
     bordercolor="#666666"
     borderopacity="1.0"
     inkscape:pageopacity="0.0"
     inkscape:pageshadow="2"
     inkscape:zoom="2.8"
     inkscape:cx="114.42284"
     inkscape:cy="72.729173"
     inkscape:document-units="px"
     inkscape:current-layer="layer1"
     showgrid="false"
     inkscape:window-width="1366"
     inkscape:window-height="709"
     inkscape:window-x="0"
     inkscape:window-y="27"
     inkscape:window-maximized="1" />
  <metadata
     id="metadata7">
    <rdf:RDF>
      <cc:Work
         rdf:about="">
        <dc:format>image/svg+xml</dc:format>
        <dc:type
           rdf:resource="http://purl.org/dc/dcmitype/StillImage" />
        <dc:title></dc:title>
      </cc:Work>
    </rdf:RDF>
  </metadata>
  <g
     inkscape:label="Layer 1"
     inkscape:groupmode="layer"
     id="layer1"
     transform="translate(0,-956.36218)">
    <path
       style="fill:#999999"
       id="path3001"
       d="m 10.973815,18.012222 c 0.906424,0.07822 1.806567,0.227009 2.717854,0.293734 1.17212,0.06947 2.333175,0.257229 3.503652,0.356375 1.103228,-0.01569 1.668998,0.203096 2.563645,0.828933 0.745558,0.72989 1.486963,1.448152 2.375277,2.003354 0.763062,0.349901 1.604204,0.479198 2.384699,0.774629 0.607091,0.213004 1.172698,0.517741 1.698644,0.883793 0.628572,0.676837 1.364397,1.210147 2.142455,1.69886 0.817523,0.451445 1.587791,0.979568 2.272411,1.615017 0.891073,0.78652 1.567802,1.747143 2.262315,2.700662 0.80027,1.176344 1.598287,2.34978 2.4516,3.488218 0.943636,1.103009 1.754563,2.29814 2.562839,3.500318 0.98316,1.514539 1.546768,3.252453 2.078742,4.965217 0.468486,1.439561 0.505887,2.953585 0.537905,4.452281 0.02003,1.469414 0.0205,2.938982 0.02972,4.408481 0.0077,1.07956 0.003,2.159165 -0.01009,3.238664 0.04644,1.790278 -0.07084,3.563536 -0.33029,5.334014 -0.360139,1.817825 -0.692401,3.650769 -1.285254,5.410018 -0.36706,1.053095 -0.996764,1.983161 -1.548995,2.944235 -0.785916,1.31183 -1.72411,2.522175 -2.580935,3.787805 -0.841647,1.227649 -1.692749,2.446527 -2.463319,3.72062 -0.764037,1.384864 -1.475348,2.794516 -2.356482,4.11022 -0.635224,0.956231 -1.346778,1.854794 -2.09453,2.724349 -0.479733,0.545764 -0.942654,1.102032 -1.469755,1.60335 -0.393511,0.299621 -0.755008,0.636789 -1.15505,0.927726 -1.688708,1.404707 -3.283175,2.08882 -5.460809,3.352713 -2.328681,0.94999 5.867215,-3.605896 3.963082,-2.323607 -0.18084,0.07689 -0.287142,0.285978 -0.302004,-0.01278 1.582924,-0.567525 5.533803,-3.063339 -3.132938,1.888102 0.655933,-0.376335 1.229848,-0.871926 1.846473,-1.306661 2.944973,-1.823158 9.865799,-5.655339 0.980727,-0.604378 -0.658461,0.37432 0.555273,-0.383059 0.66563,-0.454645 1.588083,-0.894419 3.167575,-1.804263 4.764248,-2.683255 0.05766,-0.03174 0.13461,-0.01341 0.192168,-0.04532 0.04909,-0.02722 0.162486,-0.151952 0.113668,-0.124247 -8.813756,5.002021 -5.731066,3.416757 -4.284919,2.487446 4.761555,-3.225706 4.902028,-3.565444 4.917038,-1.008057 -0.05874,0.626332 0.178304,1.16613 0.441325,1.715414 0.388109,0.646422 0.735522,1.337634 1.237517,1.905387 0.06232,0.05881 0.252803,0.247118 0.339297,0.300174 0.04227,0.02593 0.09642,0.08025 0.138579,0.05413 0.05023,-0.03112 0.101474,-0.19761 0.04905,-0.170351 -5.315579,2.763859 -6.098303,3.017481 -4.377036,2.442471 1.452079,-2.837686 3.700808,-2.700874 5.903862,-2.629378 1.031916,0.02596 2.064158,0.03299 3.096342,0.03875 1.233053,8.29e-4 2.466099,0.0021 3.699148,-0.0019 0.951106,-0.0061 1.902168,-0.01057 2.853284,-0.0057 1.389265,0.08071 2.171603,-0.06616 3.407009,-0.703096 -1.29334,0.734524 -2.583915,1.473938 -3.88002,2.203572 -0.207667,0.116905 0.410125,-0.242835 0.61456,-0.365303 0.197522,-0.118326 0.392261,-0.241329 0.591305,-0.357077 1.670391,-0.971367 3.352356,-1.922876 5.016908,-2.904214 -4.137852,2.383652 -5.281982,3.057678 -3.45445,1.984158 2.096705,-1.288478 4.001963,-2.595936 6.278821,-3.348819 0.614721,-0.203268 1.211511,-0.370738 1.800604,-0.640621 1.141085,-0.630781 2.33274,-1.156195 3.570364,-1.565493 0.684376,-0.233177 0.460893,-0.123552 1.091014,-0.470752 0.180474,-0.09944 0.715459,-0.409225 0.536738,-0.306669 -7.182554,4.121601 -4.028583,2.388116 -2.483025,1.269675 1.040859,-0.812096 2.105407,-1.587789 3.195415,-2.332058 0,0 4.846813,-1.905123 4.846813,-1.905123 l 0,0 c -1.088078,0.757301 -2.19992,1.478013 -3.225616,2.322134 -2.458841,1.904702 -5.167813,3.570166 -8.0912,4.640213 -1.221134,0.447944 -2.380841,1.023543 -3.551428,1.586576 -0.599044,0.218346 -1.210775,0.396385 -1.80749,0.62088 -1.714853,0.645159 -4.470929,2.430083 2.727424,-1.749393 -2.924682,1.700369 -10.112821,5.80071 -1.585072,0.917637 0.201376,-0.11531 -0.393098,0.246773 -0.591965,0.366359 -0.203148,0.122161 -0.408701,0.240288 -0.613986,0.358823 -1.691409,0.976649 -3.384059,1.95115 -5.076088,2.926725 -1.213172,0.499276 -2.267448,0.603285 -3.571075,0.542934 -0.946094,0.0048 -1.892136,8.79e-4 -2.838222,-0.0052 -1.229948,-0.004 -2.459902,-0.0024 -3.689849,-0.0066 -1.050144,2.69e-4 -2.100389,0.0039 -3.150448,-0.01163 -0.287359,-0.003 -0.582118,-0.02104 -0.869295,8.74e-4 -0.0647,0.0049 -0.248646,0.05952 -0.192852,0.0264 4.268824,-2.534019 6.144465,-2.853702 4.364803,-2.540424 -1.102792,2.331107 -4.112821,4.012666 -5.60776,2.140142 -0.496274,-0.627457 -0.882266,-1.337833 -1.295804,-2.020517 -0.296344,-0.606741 -0.614669,-1.221788 -0.572947,-1.91887 0.04812,-2.686625 -0.507489,-0.827602 4.76399,-3.528867 0.0218,-0.01117 -0.02067,0.04443 -0.03101,0.06664 -0.01923,0.03184 -0.09784,0.167494 -0.123177,0.182736 -1.543581,0.92847 -3.094774,1.844473 -4.655328,2.744122 -0.102703,0.05921 -0.439387,0.173542 -0.336874,0.114007 1.45143,-0.842918 2.908786,-1.675589 4.363178,-2.513383 -0.251712,0.12992 -0.461971,0.293701 -0.701824,0.436324 -1.599498,0.951105 -3.230646,1.849008 -4.818074,2.820123 -1.371211,0.838844 2.776265,-1.621108 4.169281,-2.423221 0.114727,-0.06606 -0.22269,0.14323 -0.334035,0.214845 -0.658868,0.383072 -1.219509,0.887845 -1.838223,1.327807 -1.622159,0.929329 -3.236472,1.872492 -4.866478,2.787988 -0.25247,0.141801 -0.64339,0.278449 -0.938048,0.269978 -0.218866,-0.0063 -0.285547,-0.06127 -0.468247,-0.151348 -0.206145,-0.228788 -0.439233,-0.620224 -0.171558,-0.901337 1.454624,-1.354761 3.42955,-1.98717 5.128281,-3.008038 -7.515462,4.370876 -5.144834,3.27782 -3.610481,1.958024 0.391362,-0.312931 0.806783,-0.580302 1.165999,-0.928811 0.626428,-0.384346 1.048982,-0.995678 1.54186,-1.525455 0.773615,-0.847772 1.514364,-1.7259 2.151498,-2.682836 0.934707,-1.284399 1.688072,-2.6736 2.409383,-4.086981 0.731507,-1.302644 1.568079,-2.534653 2.440931,-3.746306 0.836614,-1.260771 1.747625,-2.46675 2.567264,-3.737406 0.529029,-0.959952 1.127298,-1.883414 1.595893,-2.873811 0.687356,-1.716917 1.024854,-3.54351 1.398902,-5.348559 0.273458,-1.733788 0.359566,-3.468919 0.283143,-5.223378 -0.01163,-1.079306 -0.01312,-2.158743 0.0049,-3.237997 0.02118,-1.471876 0.03988,-2.944105 0.01708,-4.416076 -0.03809,-1.454472 -0.07743,-2.920811 -0.471885,-4.332199 -0.471451,-1.676635 -1.034491,-3.361636 -2.013198,-4.817664 -0.814988,-1.186293 -1.626521,-2.371368 -2.545522,-3.481786 -0.85816,-1.138481 -1.676563,-2.303582 -2.484196,-3.478544 C 27.719575,30.905775 27.040209,29.990596 26.17012,29.23682 25.478977,28.647696 24.716229,28.161938 23.937177,27.697834 23.159508,27.199221 22.452553,26.619807 21.76133,26.009271 21.252037,25.691475 20.713632,25.418748 20.142902,25.228406 19.317961,24.964277 18.458346,24.769225 17.699682,24.336275 16.84419,23.740451 16.118005,23.010504 15.335316,22.327805 14.505199,21.819552 13.872341,21.751838 12.912379,21.71116 11.751527,21.583931 10.595677,21.39915 9.4271916,21.354527 8.5115335,21.280772 7.6014544,21.113932 6.6816878,21.130635 c 0,0 4.2921272,-3.118413 4.2921272,-3.118413 z"
       inkscape:connector-curvature="0"
       transform="translate(0,956.36218)" />
    <path
       style="fill:#999999"
       id="path3005"
       d="m 43.830958,46.226508 c 0.933093,0.01892 1.86658,0.01489 2.79984,0.01439 1.305814,0.0036 2.611587,0.01404 3.917405,0.01705 1.273298,0.0672 2.532732,-0.08787 3.790596,-0.261359 0.805927,-0.09196 1.617384,-0.106293 2.427544,-0.11992 0.739772,-0.0085 1.479566,1.34e-4 2.219356,-0.0028 0.712856,-0.0033 1.425692,0.0019 2.138536,0.0041 0.784333,8.39e-4 1.568666,-8.24e-4 2.352999,-0.0017 0.976264,0.0013 1.952506,0.01034 2.928768,0.0144 1.312732,-0.0032 2.625449,0.004 3.93817,0.0073 1.516243,-0.06813 2.980871,0.229067 4.328947,0.916268 1.048721,0.567054 1.848397,1.382044 2.466295,2.387558 0.484102,1.010508 0.502174,2.149752 0.551391,3.248021 0.02359,0.974772 0.02422,1.949892 0.02408,2.924888 -0.01243,0.962025 -0.01507,1.92414 -0.01499,2.886236 -0.0024,0.787574 0.01207,1.575019 0.01502,2.36255 0.03784,0.834842 -0.05474,1.658977 -0.163134,2.484719 -0.08228,1.172298 -0.351893,2.302392 -0.695875,3.420736 -0.363834,1.312301 -1.088352,2.4737 -1.695907,3.679631 -0.416938,0.865108 -0.834983,1.726614 -1.347446,2.539819 -0.639995,0.873867 -1.269045,1.758537 -2.050513,2.512193 -2.192858,1.65756 -4.586699,3.220136 -7.324829,3.586969 -1.385719,0.01373 -2.716038,0.305082 -4.050195,0.648575 -0.926112,0.22895 -1.857261,0.458698 -2.808929,0.548762 -0.379335,0.03626 -0.760912,0.03056 -1.14144,0.02706 -0.193486,0.01123 -0.207544,0.0011 -0.373224,-0.128206 0,0 4.432567,-2.966365 4.432567,-2.966365 l 0,0 c 0.08121,-0.05905 0.153367,-0.03578 0.252972,-0.03575 0.360279,-3.7e-4 0.720601,-0.01469 1.078342,-0.06003 0.909967,-0.12754 1.807931,-0.322837 2.698291,-0.549272 1.354642,-0.325072 2.716625,-0.521641 4.104079,-0.63951 0.506024,-0.10411 0.986406,-0.22279 1.466093,-0.418699 0.151728,-0.06197 0.589643,-0.284358 0.449277,-0.199749 -2.940653,1.772555 -5.606453,3.221572 -3.650949,2.154488 0.866076,-0.633557 1.44891,-1.533378 2.088958,-2.381961 0.591722,-0.749606 0.964785,-1.63758 1.406752,-2.478954 0.587129,-1.194994 1.355183,-2.312194 1.733418,-3.599965 0.324355,-1.093167 0.686696,-2.175641 0.715792,-3.330196 0.09083,-0.803856 0.221176,-1.59907 0.160175,-2.411495 0.0029,-0.793016 0.01737,-1.585944 0.01617,-2.378998 0.0018,-0.960419 0.0017,-1.920835 -3.6e-4,-2.881252 0.01095,-0.972632 0.02975,-1.945485 0.01011,-2.918126 -0.026,-1.010159 -0.02663,-2.062971 -0.441802,-3.003203 -0.552537,-0.92963 -1.286464,-1.664544 -2.263345,-2.156272 -1.327682,-0.595467 -2.735236,-0.801651 -4.189065,-0.729344 -1.319396,0.0032 -2.638788,0.01047 -3.958195,0.0073 -0.989493,0.0041 -1.978968,0.01305 -2.968463,0.01443 -0.782709,-8.51e-4 -1.565417,-0.0025 -2.348127,-0.0021 -0.71529,0.0018 -1.430577,0.0061 -2.145871,6.99e-4 -0.737256,-0.0046 -1.47455,-6.34e-4 -2.21174,0.0105 -0.796463,0.01718 -1.592999,0.05147 -2.383754,0.154635 -1.254537,0.132477 -2.509127,0.218233 -3.772134,0.168897 -1.321461,0.003 -2.642878,0.01348 -3.964336,0.01705 -0.946465,-5.08e-4 -1.893138,-0.0042 -2.839446,0.01439 0,0 4.292127,-3.118413 4.292127,-3.118413 z"
       inkscape:connector-curvature="0"
       transform="translate(0,956.36218)" />
    <path
       style="fill:#999999"
       id="path3007"
       d="m 29.577188,21.274914 c 1.492476,-0.876524 3.181525,-1.292512 4.806824,-1.840248 1.487604,-0.49152 2.82577,-1.298083 4.195211,-2.038045 1.268778,-0.686545 2.582358,-1.289507 3.909198,-1.854592 1.318752,-0.498188 2.682498,-0.852033 4.011291,-1.320814 1.607853,-0.500052 3.258029,-0.835464 4.909167,-1.154949 1.5107,-0.287706 3.045709,-0.343747 4.578631,-0.368491 1.65961,0.01118 3.322238,-0.120501 4.965364,0.153639 1.492781,0.269409 2.522122,1.327 3.594423,2.305903 1.010411,0.843219 1.981494,1.729828 2.928521,2.643187 0.994781,0.911834 1.948195,1.840244 2.705639,2.960381 0.723423,1.033918 1.200621,2.214009 1.600926,3.403699 0.402733,1.074159 0.481833,2.208719 0.531935,3.342304 -0.01921,0.832196 0.09686,1.678576 -0.0079,2.508491 -0.08059,0.638247 -0.175624,0.798154 -0.39326,1.427938 -0.686131,1.673908 -1.650983,3.218236 -2.571449,4.770893 -0.970757,1.734592 -1.899014,3.492124 -3.040087,5.122945 -1.767778,2.299644 -3.884674,3.014993 -6.610782,4.581213 -0.882827,0.246882 -1.785841,0.400876 -2.664619,0.664852 -1.39262,0.52689 -2.80897,0.980431 -4.128421,1.675747 -0.249124,0.139382 -0.498795,0.277793 -0.747372,0.418148 -0.24901,0.140598 -0.496776,0.283388 -0.745379,0.424705 -5.043283,2.866841 15.320698,-8.679857 -2.340394,1.323776 -0.276924,0.156856 -0.562857,0.297245 -0.844286,0.445867 -1.824197,0.811163 -3.55423,1.816254 -5.367479,2.646555 -1.491336,0.658964 -3.042594,1.193927 -4.478916,1.971175 -1.841733,0.91308 -0.777825,0.39604 3.751677,-2.176257 0.10063,-0.05715 -0.19731,0.120996 -0.295251,0.182637 -0.237098,0.149223 -0.421649,0.288845 -0.602985,0.501366 -0.159546,0.238593 -0.08749,0.124954 -0.21811,0.339681 0,0 -4.948565,1.969951 -4.948565,1.969951 l 0,0 c 0.222104,-0.05038 0.116324,0.0026 0.302048,-0.186336 0.226285,-0.409906 0.430788,-0.663837 0.841907,-0.902033 4.885382,-2.830511 3.189803,-1.974666 5.265817,-3.009649 1.44728,-0.684801 2.955559,-1.229574 4.410528,-1.897887 1.796149,-0.874475 3.560917,-1.813725 5.363607,-2.675691 0.280153,-0.150939 1.113976,-0.615468 0.840458,-0.452816 -1.191896,0.70878 -4.800435,2.779064 -3.596155,2.091536 2.483918,-1.418078 4.930961,-2.911837 7.459089,-4.253609 1.368508,-0.644102 2.800427,-1.151506 4.232906,-1.633736 0.882809,-0.234024 1.79882,-0.385877 2.632506,-0.772302 -7.436012,4.343877 -3.940165,2.667541 -2.278395,0.781151 1.224679,-1.570611 2.156261,-3.326116 3.081842,-5.083763 0.905582,-1.529185 1.861534,-3.044119 2.583048,-4.670178 0.159051,-0.414604 0.348538,-0.840442 0.427772,-1.28259 0.144648,-0.80718 0.0032,-1.643513 0.03084,-2.455725 -0.03995,-1.085597 -0.112243,-2.175919 -0.457025,-3.215271 -0.379136,-1.146154 -0.835414,-2.282126 -1.532322,-3.275928 -0.744253,-1.078285 -1.659887,-1.995385 -2.625211,-2.87876 -0.963533,-0.895745 -1.949817,-1.764952 -2.940891,-2.629964 -0.997389,-0.944909 -1.992223,-1.861347 -3.415081,-2.048365 -1.621493,-0.211077 -3.260392,-0.108476 -4.891262,-0.09601 -1.517239,0.0516 -3.036813,0.139421 -4.528635,0.441163 -1.643169,0.330881 -3.28825,0.668365 -4.875428,1.218542 -1.330627,0.446633 -2.687796,0.816583 -3.987002,1.353418 -1.323356,0.58552 -2.634235,1.201225 -3.899694,1.904762 -1.356591,0.735323 -2.719641,1.463347 -4.20004,1.925713 -1.656263,0.542387 -3.336887,1.051046 -4.828442,1.98135 0,0 4.099694,-3.308681 4.099694,-3.308681 z"
       inkscape:connector-curvature="0"
       transform="translate(0,956.36218)" />
    <path
       style="fill:#999999"
       id="path3009"
       d="m 44.502568,47.239568 c -0.05807,1.549711 -0.01147,3.098385 -0.175571,4.642198 -0.06471,0.605494 -0.19185,1.201099 -0.377312,1.780654 -0.07894,0.246663 -0.190594,0.465602 -0.225401,0.721524 0,0 -4.982485,1.913334 -4.982485,1.913334 l 0,0 c 0.04921,0.02341 0.09542,0.08585 0.147628,0.07023 0.377871,-0.113132 0.725558,-1.881133 0.780467,-2.186342 0.222878,-1.505097 0.177017,-3.019787 0.113253,-4.536928 0,0 4.719421,-2.404665 4.719421,-2.404665 z"
       inkscape:connector-curvature="0"
       transform="translate(0,956.36218)" />
    <path
       style="fill:#999999"
       id="path3011"
       d="m 43.46794,48.228181 c 1.240947,-0.259225 2.504342,-0.38888 3.766571,-0.489904 0.715967,-0.06622 1.434368,-0.08244 2.15278,-0.08994 0.385173,-0.04114 0.661858,0.01044 0.999603,0.183475 0,0 -4.423392,2.963908 -4.423392,2.963908 l 0,0 c -0.278747,-0.06991 -0.581236,0.0016 -0.86741,-0.02497 -0.691503,0.0026 -1.382829,0.03073 -2.072555,0.08027 -1.262334,0.107373 -2.532278,0.242425 -3.750534,0.607063 0,0 4.194937,-3.229899 4.194937,-3.229899 z"
       inkscape:connector-curvature="0"
       transform="translate(0,956.36218)" />
    <path
       style="fill:#000080"
       id="path3017"
       d="m 23.447393,24.685051 c 0.61053,-0.704012 1.321119,-1.312935 2.004281,-1.944621 1.909445,-1.533406 3.993228,-3.213849 6.441905,-3.614631 0.524146,9.72e-4 0.926179,-0.20747 1.362043,-0.473228 0.585504,-0.251864 1.189846,-0.407809 1.760336,-0.695848 2.234502,-1.206235 -5.099798,2.96525 -3.833063,2.209929 1.60164,-0.955017 3.230313,-1.863956 4.847932,-2.791651 0.09638,-0.05527 0.19581,-0.105055 0.293932,-0.157178 0.07935,-0.04215 0.316277,-0.170585 0.238478,-0.125637 -1.438787,0.831259 -2.881074,1.656445 -4.321611,2.484668 1.589387,-0.915258 3.179571,-1.829133 4.768162,-2.745773 1.441386,-0.8317 -2.880043,1.668193 -4.32655,2.490956 -0.139742,0.07948 0.257385,-0.194087 0.396769,-0.274196 4.744009,-2.726558 3.013524,-2.170816 4.945941,-2.774441 0.46976,-0.15247 0.992175,-0.214804 1.446307,-0.423221 0.848621,-0.256563 1.706769,-0.469787 2.562788,-0.701939 1.139011,-0.380693 2.333589,-0.544163 3.491467,-0.856185 1.034155,-0.231731 2.037445,-0.560231 3.042904,-0.889755 0.806644,-0.176236 1.564066,-0.513184 2.374853,-0.674153 0.338704,-0.105829 0.716714,-0.01244 1.056603,-0.07863 0.07238,-0.01409 0.135941,-0.05719 0.203912,-0.08578 -1.463228,0.814797 -2.926457,1.629594 -4.389685,2.444391 0.466699,-0.373815 0.46329,-1.031271 0.544835,-1.579398 0.826283,-2.441202 4.052768,-3.389978 6.475925,-3.5681434 1.03796,-0.063894 2.07863,-0.061567 3.118123,-0.057603 1.09123,0.00406 2.182392,0.01283 3.273638,0.010823 0.735568,-2.164e-4 1.471035,-0.0138 2.206594,-0.014636 0.268752,0.051943 0.578918,-0.063912 0.844199,-6.056e-4 0.381255,0.090983 0.761164,0.3906257 1.087639,0.5909517 0.794866,0.579193 1.615706,1.115644 2.447018,1.640231 0.830035,0.467896 1.567395,1.078925 2.260821,1.727757 0.642362,0.542013 1.28249,1.086663 1.907322,1.648243 0.698356,0.60739 1.192847,1.371199 1.592058,2.196212 0.54831,1.109595 0.954575,2.277505 1.304027,3.463064 0.363342,1.233111 0.737251,2.464787 1.077801,3.704289 0.211453,0.79896 0.296127,1.619733 0.317499,2.443289 -0.0086,0.989121 0.03428,1.980439 -0.02273,2.968301 -0.02464,0.744484 -0.271902,1.379126 -0.638259,2.01256 -0.33826,0.620931 -0.832851,1.105717 -1.352852,1.571756 -0.62528,0.621802 -1.218715,1.274612 -1.802149,1.93552 -0.649763,0.632224 -1.151422,1.389346 -1.653161,2.138745 -0.337473,0.556847 -0.695068,1.098967 -1.100849,1.608365 -0.429319,0.481029 -0.79219,1.011946 -1.232301,1.4838 -0.463359,0.489572 -0.982667,0.91857 -1.403807,1.44747 -0.385591,0.526553 -0.712763,1.079752 -1.135361,1.580762 -0.536715,0.602181 -1.089275,1.188342 -1.758497,1.642567 -2.430314,1.582613 -4.315617,3.00005 -7.019957,3.338991 -0.642469,0.05958 -1.288062,0.05991 -1.932554,0.05084 -0.720095,-0.0095 -1.440226,-0.0079 -2.160352,-0.0069 -0.466737,7.14e-4 -0.933489,0.0061 -1.400218,0.0063 -0.510586,0.02377 -0.996585,0.241092 -1.467236,0.43232 -0.352471,0.282178 -0.800352,0.328029 -1.207011,0.474775 -0.192454,0.06945 -0.369877,0.175639 -0.559752,0.251856 -0.511416,0.100345 -0.959212,0.295289 -1.434149,0.49458 -1.442617,0.47315 -6.608706,3.758077 4.039001,-2.356514 0.05739,-0.03296 -0.115629,0.06475 -0.170346,0.101979 -0.179906,0.122397 -0.154428,0.114035 -0.291269,0.275948 -0.227848,0.381776 -0.567614,0.660694 -0.94615,0.882595 -1.590207,0.915459 -3.180414,1.830918 -4.770621,2.746377 -0.08373,0.05046 -0.335942,0.200057 -0.251176,0.15137 1.413442,-0.811843 2.821437,-1.633176 4.237256,-2.440868 0.181982,-0.103816 -0.34033,0.245964 -0.522837,0.348853 -1.618299,0.912328 -3.244752,1.810115 -4.867128,2.715172 -0.661503,0.28437 -1.311887,0.603019 -1.940211,0.956115 -0.469583,0.285128 -1.049009,0.297513 -1.585227,0.315637 -0.149281,0.09363 -0.337224,0.08405 -0.492321,0.159584 -0.07388,0.03598 -0.270319,0.186252 -0.19873,0.145899 10.318722,-5.816468 5.319128,-3.303904 4.088477,-2.305207 -2.06124,-5.889212 -3.126206,2.966552 -5.028807,2.747536 0,0 4.245647,-3.231897 4.245647,-3.231897 l 0,0 c 0.07746,-0.06363 0.158276,-0.112013 0.24746,-0.158613 -1.477221,0.852001 -2.954442,1.704001 -4.431664,2.556001 0.499792,-0.200274 -0.20438,0.102956 0.292769,-0.187454 1.573742,-0.919302 3.458539,-2.684515 5.540438,-2.874 0.520293,-0.06424 1.00229,-0.196677 1.446915,-0.485865 0.644658,-0.327787 1.297323,-0.643685 1.971423,-0.906681 -14.057252,8.174234 11.399321,-6.667611 -2.9299,1.671341 0.340887,-0.233796 0.734292,-0.369802 1.022869,-0.681183 1.075712,-1.920787 3.432335,-2.693894 5.469945,-3.433982 0.467005,-0.184248 0.956486,-0.285506 1.420133,-0.481547 0.592166,-0.240431 1.202835,-0.43199 1.775114,-0.721722 0.511522,-0.185367 1.053965,-0.307423 1.600341,-0.288704 0.460121,4.04e-4 0.920283,0.0064 1.38039,0.0098 0.718579,0.0051 1.437166,0.01324 2.155781,0.0082 0.627396,-0.009 1.257815,-0.01089 1.879013,-0.111051 2.248116,-0.41103 5.225991,-2.496394 -2.122078,1.718759 0.77875,-0.379819 1.221027,-0.847666 1.798168,-1.476484 0.449282,-0.482716 0.859613,-0.967043 1.146186,-1.564961 0.298367,-0.349263 0.159185,-0.161677 0.414445,-0.565044 0.284479,-0.334418 0.656186,-0.607808 0.98229,-0.902147 0.414706,-0.484231 0.858569,-0.938331 1.223229,-1.46345 0.430448,-0.482813 0.826865,-0.991651 1.153809,-1.55176 0.468517,-0.788094 1.010276,-1.56539 1.633,-2.234273 0.607516,-0.632167 1.152102,-1.324345 1.768078,-1.950981 0.462194,-0.492398 1.057781,-0.848549 1.397951,-1.454628 0.382941,-0.565188 0.71508,-1.098811 0.757381,-1.801896 0.144444,-0.958481 0.03531,-1.938476 0.04974,-2.904695 -0.02553,-0.786549 -0.06244,-1.576268 -0.246625,-2.345041 -0.312041,-1.246062 -0.647943,-2.488083 -1.018185,-3.717844 -0.346249,-1.156737 -0.788219,-2.274818 -1.321878,-3.357446 -0.3654,-0.7641 -0.838458,-1.461744 -1.484867,-2.019167 -0.631888,-0.561051 -1.295387,-1.085784 -1.923148,-1.651791 -0.674064,-0.626859 -1.385155,-1.211989 -2.199444,-1.650169 -0.823802,-0.522495 -1.611919,-1.096357 -2.435176,-1.618704 -0.698538,-0.366288 -1.029534,-0.384006 -1.805688,-0.345376 -0.720945,-0.0011 -1.441765,-0.01577 -2.162708,-0.01821 -1.093195,-0.0057 -2.186377,-0.0029 -3.279579,-0.0056 -1.027667,0.0032 -2.058205,-0.005 -3.081523,0.104245 -0.36876,0.05658 -0.590923,0.07266 -0.939936,0.191334 -0.12205,0.0415 -0.464661,0.221443 -0.354645,0.15425 1.3895,-0.848638 2.797325,-1.666902 4.195987,-2.500353 -0.313516,0.141492 -0.191902,0.03778 -0.377752,0.295316 -0.22745,0.600119 -0.117594,1.303771 -0.400973,1.900168 -5.984379,3.439259 -3.000167,2.33122 -6.012405,2.903635 -0.777179,0.213214 -1.541396,0.470327 -2.317749,0.686766 -1.000328,0.325754 -2.014521,0.600987 -3.038736,0.841361 -1.174021,0.277266 -2.359977,0.510384 -3.509349,0.882454 -0.86319,0.237246 -1.733531,0.45111 -2.575763,0.758247 -0.489176,0.123712 -0.976003,0.265593 -1.443673,0.452537 -1.66146,0.840795 -0.2714,0.141309 4.184726,-2.436541 0.13903,-0.08043 -0.274198,0.167385 -0.412623,0.24885 -1.579258,0.92942 -3.217783,1.764373 -4.7397,2.784985 -1.379058,0.924809 2.873524,-1.664677 4.310286,-2.497015 -1.586466,0.918084 -3.171656,1.838379 -4.759399,2.754253 -0.166792,0.09621 -0.673534,0.373492 -0.506987,0.276858 8.819752,-5.117378 2.000817,-1.088417 -1.034617,0.540061 -0.593353,0.240136 -1.209848,0.430212 -1.771426,0.743312 -0.462251,0.205301 -0.939726,0.272386 -1.433602,0.360644 -1.729101,0.548334 -3.667522,2.013677 3.637768,-2.24673 0.102585,-0.05983 -0.205995,0.118293 -0.30728,0.180294 -0.412422,0.252463 -0.29551,0.178968 -0.679379,0.489467 -0.707244,0.569502 -1.343754,1.227492 -2.011192,1.842269 0,0 -4.875549,2.08302 -4.875549,2.08302 z"
       inkscape:connector-curvature="0"
       transform="translate(0,956.36218)" />
    <path
       style="fill:#000080"
       id="path3019"
       d="m 29.213264,89.876515 c 0.943666,0.173126 1.902784,0.226738 2.859541,0.266788 1.53983,0.04863 3.080572,0.04826 4.62099,0.04782 1.599442,-0.102509 3.180183,-0.429893 4.735846,-0.805831 1.379646,-0.375549 2.63342,-1.057769 4.020769,-1.408357 1.104269,-0.114065 2.144848,-0.452222 3.207665,-0.74745 0.858288,-0.294766 1.631886,-0.763814 2.488184,-1.057219 0.893235,-0.378984 1.732868,-0.861795 2.628842,-1.236156 0.838888,-0.248052 1.562853,-0.754014 2.372185,-1.069633 0.813258,-0.396246 1.679252,-0.683782 2.479172,-1.106435 0.119113,-0.06416 0.474526,-0.260093 0.357341,-0.192475 -1.376721,0.794393 -2.75582,1.584667 -4.136088,2.372882 -0.114979,0.06566 0.225204,-0.139415 0.340132,-0.205165 1.824171,-1.043605 3.783888,-2.101077 5.635647,-3.191974 -1.374806,0.789168 -2.745522,1.585505 -4.124418,2.367504 -0.145792,0.08268 0.282825,-0.179938 0.424632,-0.269282 0.323199,-0.203625 0.639791,-0.418202 0.970117,-0.610052 1.663643,-0.966227 3.335155,-1.918842 5.001666,-2.880112 0.185375,-0.106927 0.369319,-0.216315 0.553978,-0.324472 -10.21359,5.865753 0.754246,-0.441157 1.133358,-0.658287 0.652486,-0.373699 1.33409,-0.694244 1.99474,-1.053811 0.604767,-0.359718 1.237858,-0.425099 1.920646,-0.46093 0.643382,-0.002 1.263372,-0.160348 1.90389,-0.243324 0.657073,-0.226736 1.092261,0.894676 1.190597,0.29162 0.03592,-0.03797 0.153301,-0.13958 0.107775,-0.1139 -1.463589,0.825572 -2.908326,1.684173 -4.367855,2.5169 -0.06357,0.03627 0.120877,-0.08267 0.179098,-0.127023 0.145672,-0.110967 0.203109,-0.18021 0.359966,-0.269396 1.583752,-0.900499 3.173046,-1.791213 4.75957,-2.686819 -8.190831,5.528454 -3.342415,1.566725 -1.540879,0.106832 0.904285,-0.669297 1.669287,-1.493793 2.47856,-2.26845 0.417148,-0.441669 0.930398,-0.778474 1.340324,-1.226597 0.256053,-0.327413 0.561601,-0.608232 0.832729,-0.92302 0.159521,-0.238891 0.233228,-0.490699 0.258258,-0.77311 0.0033,-0.07878 0.0065,-0.157567 0.0098,-0.236351 0,0 4.733577,-2.403175 4.733577,-2.403175 l 0,0 c 9.2e-4,0.08115 0.0018,0.162305 0.0028,0.243458 0.0033,0.351045 0.01033,0.677501 -0.14897,1.002148 -0.157533,0.415499 -0.481493,0.720881 -0.806742,1.006461 -0.367738,0.513438 -0.838769,0.906458 -1.342125,1.286836 -0.790791,0.836263 -1.657463,1.618481 -2.540403,2.356372 -0.622424,0.498941 -1.239111,0.997239 -1.840114,1.521741 -0.157611,0.137549 -0.326173,0.26321 -0.47455,0.410674 -0.117848,0.117123 -0.180648,0.292955 -0.321733,0.380711 -1.576756,0.980752 -3.206312,1.873952 -4.809468,2.810929 1.456307,-0.839657 2.914445,-1.676147 4.368922,-2.51897 0.06076,-0.03521 -0.125146,0.06378 -0.187552,0.096 -0.06744,0.03482 -0.134658,0.07007 -0.201987,0.105098 -0.0562,0.05045 -0.103769,0.112587 -0.168583,0.151338 -1.566898,0.936822 -3.139163,1.864917 -4.722807,2.773142 -0.05222,0.02995 -0.117869,0.02453 -0.176804,0.0368 -0.488829,-0.218811 -0.605297,-0.55283 -1.200591,-0.388505 -0.644079,0.09341 -1.277193,0.234691 -1.931817,0.229159 -0.635031,0.07392 -1.209854,0.292451 -1.764609,0.611881 -0.467947,0.244804 -0.940872,0.480544 -1.406161,0.730376 -0.185809,0.09977 -0.736202,0.411776 -0.554361,0.304946 0.376665,-0.22129 11.898207,-6.9268 -1.128247,0.666836 -1.897958,1.075828 -0.757668,0.432526 3.38908,-1.985197 0.904082,-0.518077 -0.69062,0.438759 -0.954499,0.604685 -2.849063,1.791481 9.495752,-5.510665 -5.299142,3.117295 -0.497764,0.259981 -0.908263,0.475486 -0.768832,0.39313 8.975774,-5.301612 1.291159,-0.602543 -1.457966,0.807276 -0.825572,0.357351 -1.653593,0.709221 -2.473484,1.079635 -0.777275,0.381684 -1.549546,0.771704 -2.366371,1.065456 -0.885269,0.410275 -1.740877,0.886742 -2.657916,1.225558 -0.831207,0.351742 -1.634868,0.780011 -2.51164,1.015242 -1.049978,0.299722 -2.111481,0.50757 -3.180298,0.725505 -1.351401,0.41708 -2.62066,1.068763 -4.009535,1.369403 -1.580385,0.347917 -3.179401,0.684927 -4.803642,0.708723 -1.557308,-0.0038 -3.115095,0.0032 -4.671963,-0.03729 -0.98839,-0.04169 -1.971934,-0.134963 -2.950627,-0.281694 0,0 4.342454,-3.046697 4.342454,-3.046697 z"
       inkscape:connector-curvature="0"
       transform="translate(0,956.36218)" />
    <path
       style="fill:#550000"
       id="path3795"
       d="m 30.589049,86.731365 c 1.003047,-0.402522 2.051882,-0.624089 3.120216,-0.75485 0.787628,-0.09185 1.579445,-0.109652 2.371387,-0.11108 0.638387,0.004 1.276774,0.0024 1.915164,0.0044 0.784674,0.0062 1.569408,0.01302 2.354104,0.0079 0.703009,-0.0037 1.406031,-0.0032 2.109047,-0.003 0.608555,-0.0057 1.21715,-0.0027 1.825719,-0.0015 0.845803,-4.18e-4 1.691528,0.01098 2.537327,0.01219 1.23732,0.0016 2.474619,0.0079 3.711944,0.01 0.66248,-0.114784 1.440366,0.166311 2.084579,-0.08188 0.116679,-0.04495 0.423714,-0.26533 0.314471,-0.204497 -1.417131,0.789148 -2.825897,1.593225 -4.238846,2.389837 0.09705,-0.08813 0.202662,-0.167661 0.291138,-0.264392 0.387967,-0.424166 0.69012,-0.930056 1.051693,-1.376095 0.266258,-0.328459 0.66084,-0.763082 0.940819,-1.076935 2.030994,-2.284586 4.641116,-3.355861 7.342087,-4.878087 0.88998,-0.392333 1.844108,-0.505652 2.804174,-0.561899 0.904448,-0.129439 1.796714,-0.293157 2.689524,-0.478007 0.810582,-0.13964 1.591335,-0.390523 2.353437,-0.690439 1.485089,-1.024936 3.819437,-2.189884 -3.763051,2.131433 -0.09812,0.05592 0.189462,-0.123015 0.28238,-0.187201 1.007473,-0.695954 -0.466083,0.30117 0.596867,-0.414851 1.77732,-1.155165 3.684036,-2.193072 5.508186,-3.204775 0.124463,-0.06903 0.273541,-0.07929 0.407779,-0.126574 0.0611,-0.02153 0.70748,-0.280391 0.783823,-0.310885 0.567201,-0.238944 1.132067,-0.315359 1.738565,-0.329627 0.160445,-0.09219 0.379575,0.06409 0.543094,-0.01372 0.0658,-0.03131 0.194377,-0.210474 0.130548,-0.17533 -8.343029,4.593661 -5.256063,3.527811 -4.059523,2.202134 0.493999,-0.536529 1.048471,-0.997671 1.496769,-1.57731 0.409717,-0.834022 0.850376,-1.638201 1.377181,-2.404907 0.580994,-0.816919 1.353141,-1.468673 2.083285,-2.147271 0.347975,-0.345429 0.6361,-0.732768 0.740955,-1.21501 0.120667,-0.873065 0.559178,-1.6428 0.951405,-2.416495 0.361588,-0.739032 0.604936,-1.524169 0.929691,-2.278908 0.257145,-0.450298 0.443633,-0.919461 0.589109,-1.415785 0.262433,-0.778396 0.478104,-1.572013 0.694761,-2.364134 0.195917,-0.885093 0.470338,-1.749187 0.661241,-2.635306 0.111855,-0.62727 0.13103,-1.265407 0.142391,-1.900887 0.0459,-1.329586 0.04713,-2.659651 0.03593,-3.989821 -0.0553,-0.821797 0.03537,-1.661241 -0.06685,-2.479685 -0.09892,-0.251298 -0.396451,-0.290726 -0.607625,-0.41495 -0.231616,-0.13625 -0.437801,-0.311735 -0.658099,-0.465615 -0.813947,-0.653858 -1.768266,-1.077182 -2.704738,-1.519527 -0.909127,-0.459986 -1.8805,-0.738654 -2.836908,-1.07004 -0.69421,-0.287253 -1.439139,-0.452943 -2.130839,-0.742426 -0.596768,-0.257636 -1.176711,-0.525591 -1.822541,-0.635694 -0.960619,-0.123435 -1.931766,-0.04623 -2.891247,-0.163279 -0.608581,-0.07025 -1.208488,-0.20063 -1.817831,-0.262847 -0.196297,-0.02373 -0.393952,-0.01449 -0.590956,-0.0069 -0.01743,9.85e-4 -0.03486,0.002 -0.05229,0.003 0,0 4.326007,-3.141901 4.326007,-3.141901 l 0,0 c 0.01744,0.001 0.03488,0.0021 0.05232,0.0031 0.205894,0.01243 0.410543,0.03327 0.61312,0.07373 0.582557,0.101412 1.160619,0.233137 1.751312,0.282223 0.985244,0.06457 1.981791,0.01813 2.956595,0.19782 0.645662,0.174173 1.246457,0.456457 1.868184,0.698496 0.701773,0.241834 1.3992,0.494057 2.10041,0.737207 0.972449,0.318902 1.915305,0.701313 2.841913,1.137436 0.96757,0.447609 1.921883,0.921137 2.775647,1.568217 0.553255,0.352619 1.240735,0.596045 1.5134,1.23779 0.163465,0.850868 -0.03934,1.737621 0.02287,2.59799 -0.008,1.319626 -6.05e-4,2.638915 0.04071,3.957947 -0.0027,0.664258 -0.01551,1.328704 -0.111658,1.987448 -0.144736,0.916503 -0.502941,1.775759 -0.673083,2.68616 -0.206116,0.792787 -0.404706,1.586657 -0.630672,2.373415 -0.192268,0.485055 -0.229303,1.037927 -0.56672,1.461526 -0.361573,0.763853 -0.670834,1.538225 -0.981583,2.324679 -0.358917,0.731068 -0.785838,1.428266 -0.962104,2.228931 -0.03938,0.604114 -0.227563,1.076895 -0.625791,1.547312 -0.689232,0.713487 -1.506703,1.297416 -2.144592,2.061213 -0.515756,0.76242 -1.068475,1.501726 -1.365974,2.386106 -0.353257,0.65074 -0.858757,1.168718 -1.443521,1.621068 -1.342704,1.780267 -3.501554,3.260243 -5.756443,3.203973 -0.563195,0.06375 -1.099113,0.237641 -1.624639,0.448386 -0.07407,0.02903 -0.730459,0.285689 -0.781138,0.30793 -0.126408,0.05548 -0.491398,0.251125 -0.372477,0.181023 7.348601,-4.331941 5.104818,-2.942555 3.518829,-2.038052 -1.962857,1.374213 -3.996475,2.702721 -6.195718,3.661434 -0.773767,0.276377 -1.582128,0.450203 -2.385903,0.614672 -0.897431,0.19254 -1.810306,0.306668 -2.720669,0.419302 -0.934357,0.101185 -1.849899,0.284029 -2.696497,0.712966 9.756149,-5.696364 4.192083,-2.594756 3.140657,-1.807481 -0.556666,0.416814 -1.081497,0.884163 -1.561495,1.386609 -0.780696,0.886104 -1.587807,1.750413 -2.177551,2.784053 -4.800285,2.820855 -3.611309,2.993451 -7.288695,2.919133 -1.246456,0.002 -2.492888,0.0084 -3.73934,0.01 -0.85698,0.0012 -1.713889,0.01256 -2.570874,0.01219 -0.607255,0.0012 -1.214536,0.0043 -1.821776,-0.0014 -0.700299,2.16e-4 -1.400606,8.31e-4 -2.100897,-0.0031 -0.790719,-0.0057 -1.581467,0.0012 -2.372193,0.0033 -0.634707,-0.0023 -1.269393,-0.01209 -1.904115,-0.0051 -0.768121,0.01073 -1.53731,0.0385 -2.299191,0.144233 -1.056528,0.168722 -2.091702,0.443159 -3.067554,0.890601 0,0 4.151441,-3.280948 4.151441,-3.280948 z"
       inkscape:connector-curvature="0"
       transform="translate(0,956.36218)" />
    <path
       style="fill:#550000"
       id="path3797"
       d="m 21.040511,87.443749 c 1.176094,-1.20157 2.382798,-2.368516 3.481246,-3.643355 0.912086,-1.010995 1.520699,-2.225161 2.106126,-3.44088 0.617958,-1.490174 1.539079,-2.810986 2.429187,-4.14496 0.606252,-0.852284 1.11008,-1.768882 1.652421,-2.661066 0,0 4.820302,-2.121723 4.820302,-2.121723 l 0,0 c -0.587554,0.884893 -1.058327,1.843788 -1.69899,2.695172 -0.88508,1.318311 -1.8664,2.586364 -2.459637,4.074255 -0.581469,1.249777 -1.142897,2.531288 -2.068526,3.573164 -1.063497,1.270145 -2.230676,2.442293 -3.401934,3.61238 0,0 -4.860195,2.057013 -4.860195,2.057013 z"
       inkscape:connector-curvature="0"
       transform="translate(0,956.36218)" />
    <path
       style="fill:#550000"
       id="path3799"
       d="m 16.330957,13.012222 c 1.18487,0.0087 2.328648,0.401057 3.44312,0.768061 1.127361,0.227852 2.026983,0.880165 2.973615,1.478455 0.89663,0.53432 1.625077,1.284864 2.429761,1.937513 0.700615,0.509021 1.306736,1.146475 2.06442,1.571227 0.546426,0.287104 1.034165,0.666509 1.595822,0.923057 0.173118,0.143618 0.416223,0.05564 0.604847,0.114792 0.126526,0.03968 0.23519,0.123361 0.357792,0.173877 0.368243,0.110389 0.643479,0.235546 0.872268,0.55734 0.09065,0.103922 0.192045,0.197307 0.293545,0.290298 0,0 -4.542075,2.79085 -4.542075,2.79085 l 0,0 c -0.112193,-0.116121 -0.2246,-0.232193 -0.328456,-0.355985 -0.184093,-0.183832 -0.490061,-0.187471 -0.711555,-0.316185 -0.325984,-0.117399 -0.691068,-0.125221 -0.985009,-0.339794 -0.542561,-0.305182 -1.046537,-0.673951 -1.592956,-0.973652 -0.740153,-0.487952 -1.379029,-1.106632 -2.075998,-1.652521 -0.778369,-0.656466 -1.532553,-1.34727 -2.4071,-1.878276 -0.899951,-0.592079 -1.798048,-1.1411 -2.867385,-1.381917 -1.111331,-0.339517 -2.239551,-0.682887 -3.416782,-0.588727 0,0 4.292126,-3.118413 4.292126,-3.118413 z"
       inkscape:connector-curvature="0"
       transform="translate(0,956.36218)" />
    <path
       style="fill:#550000"
       id="path3801"
       d="m 18.669043,21.130635 c -1.02334,-0.02068 -2.047044,-0.0205 -3.070559,-0.01762 -0.916751,0.03703 -1.813652,0.0282 -2.692924,-0.251699 -0.759663,-0.237867 -1.547309,-0.355294 -2.33841,-0.420715 -0.6371959,-0.03702 -1.2760141,-0.03727 -1.9140608,-0.03193 -0.5294785,0.0044 -1.0589892,0.0038 -1.5884611,0.0083 -0.234423,0.0036 -0.4688501,0.0032 -0.7032809,0.0066 0,0 4.3112678,-3.13292 4.3112678,-3.13292 l 0,0 c 0.228936,0.0029 0.457852,0.002 0.686788,0.0046 0.526501,0.0022 1.053023,-0.0027 1.579529,0.0011 0.647573,0.0084 1.297069,0.0054 1.9413,0.08138 0.802876,0.107541 1.596026,0.269561 2.374617,0.494989 0.853707,0.183034 1.717423,0.164903 2.587253,0.157207 1.039689,0.0029 2.079544,0.0026 3.119067,-0.01762 0,0 -4.292126,3.118413 -4.292126,3.118413 z"
       inkscape:connector-curvature="0"
       transform="translate(0,956.36218)" />
  </g>
</svg>
